<svg width="40" height="40" viewBox="0 0 40 40" fill="none" xmlns="http://www.w3.org/2000/svg">
<path d="M17.8852 33.8853C17.3851 34.3852 16.7069 34.666 15.9998 34.666C15.2927 34.666 14.6146 34.3852 14.1145 33.8853L2.1145 21.8853C1.61458 21.3852 1.33374 20.707 1.33374 19.9999C1.33374 19.2928 1.61458 18.6147 2.1145 18.1146L14.1145 6.11459C14.6174 5.62883 15.291 5.36004 15.9902 5.36612C16.6894 5.3722 17.3583 5.65265 17.8527 6.14707C18.3471 6.64149 18.6276 7.31032 18.6336 8.00952C18.6397 8.70871 18.3709 9.38231 17.8852 9.88525L10.6665 17.3333L35.9998 17.3333C36.7071 17.3333 37.3854 17.6142 37.8855 18.1143C38.3856 18.6144 38.6665 19.2927 38.6665 19.9999C38.6665 20.7072 38.3856 21.3854 37.8855 21.8855C37.3854 22.3856 36.7071 22.6666 35.9998 22.6666L10.6665 22.6666L17.8852 30.1146C18.3851 30.6147 18.6659 31.2928 18.6659 31.9999C18.6659 32.707 18.3851 33.3852 17.8852 33.8853Z" fill="#9747FF"/>
</svg>
