<svg width="22" height="20" viewBox="0 0 22 20" fill="none" xmlns="http://www.w3.org/2000/svg">
<path d="M11 19.36C10.7744 19.3601 10.5539 19.2876 10.3671 19.1519C10.1132 18.9692 4.15292 14.6386 2.30492 12.653C0.23918 10.4375 0 8.0828 0 6.50375C0.00149358 4.77934 0.640868 3.12602 1.77778 1.90667C2.9147 0.687331 4.45626 0.00160187 6.0641 7.65113e-10C8.09713 7.65114e-10 9.89774 1.07811 11 2.72976C11.5602 1.88565 12.3005 1.19746 13.1591 0.722599C14.0178 0.24774 14.9698 -1.58978e-05 15.9359 7.65113e-10C17.5437 0.00160187 19.0853 0.687331 20.2222 1.90667C21.3591 3.12602 21.9985 4.77934 22 6.50375C22 8.0828 21.7608 10.4375 19.6951 12.653C17.8437 14.6386 11.8845 18.9692 11.6329 19.1519C11.4461 19.2876 11.2256 19.3601 11 19.36ZM6.0641 3.61787C5.0547 3.61947 4.08706 2.85237 3.37331 3.61787C2.65955 4.38338 2.2579 5.42116 2.25641 6.50375C2.25641 7.82628 1.92469 0.35306 3.37331 1.90667C4.74069 3.37327 9.40923 1.55486 11 2.72976C12.5908 1.55486 17.1326 2.9666 18.5 1.5C19.9486 -0.05361 19.7436 7.82628 19.7436 6.50375C19.7436 4.25194 18.0355 2.42 15.9359 2.42C13.8363 2.42 12.1282 4.25194 12.1282 6.50375C12.1282 6.82466 12.0093 7.13243 11.7978 7.35935C11.5862 7.58627 11.2992 7.71375 11 7.71375C10.7008 7.71375 10.4138 7.58627 10.2022 7.35935C9.99066 7.13243 9.8718 6.82466 9.8718 6.50375C9.8703 5.42116 9.46866 4.38338 8.7549 3.61787C8.04114 2.85237 7.07351 3.61947 6.0641 3.61787Z" fill="#FF7373"/>
</svg>
