<svg width="30" height="30" viewBox="0 0 30 30" fill="none" xmlns="http://www.w3.org/2000/svg">
<path d="M3.33333 30C2.41667 30 1.63222 29.6739 0.98 29.0217C0.327778 28.3694 0.00111111 27.5844 0 26.6667V3.33333C0 2.41667 0.326667 1.63222 0.98 0.98C1.63333 0.327778 2.41778 0.00111111 3.33333 0H13.3333C13.8056 0 14.2017 0.16 14.5217 0.48C14.8417 0.8 15.0011 1.19556 15 1.66667C14.9989 2.13778 14.8389 2.53389 14.52 2.855C14.2011 3.17611 13.8056 3.33556 13.3333 3.33333H3.33333V26.6667H13.3333C13.8056 26.6667 14.2017 26.8267 14.5217 27.1467C14.8417 27.4667 15.0011 27.8622 15 28.3333C14.9989 28.8044 14.8389 29.2006 14.52 29.5217C14.2011 29.8428 13.8056 30.0022 13.3333 30H3.33333ZM23.625 16.6667H11.6667C11.1944 16.6667 10.7989 16.5067 10.48 16.1867C10.1611 15.8667 10.0011 15.4711 10 15C9.99889 14.5289 10.1589 14.1333 10.48 13.8133C10.8011 13.4933 11.1967 13.3333 11.6667 13.3333H23.625L20.5 10.2083C20.1944 9.90278 20.0417 9.52778 20.0417 9.08333C20.0417 8.63889 20.1944 8.25 20.5 7.91667C20.8056 7.58333 21.1944 7.40944 21.6667 7.395C22.1389 7.38056 22.5417 7.54056 22.875 7.875L28.8333 13.8333C29.1667 14.1667 29.3333 14.5556 29.3333 15C29.3333 15.4444 29.1667 15.8333 28.8333 16.1667L22.875 22.125C22.5417 22.4583 22.1461 22.6183 21.6883 22.605C21.2306 22.5917 20.8344 22.4178 20.5 22.0833C20.1944 21.75 20.0489 21.3544 20.0633 20.8967C20.0778 20.4389 20.2372 20.0567 20.5417 19.75L23.625 16.6667Z" fill="#9747FF"/>
</svg>
