<svg width="30" height="30" viewBox="0 0 30 30" fill="none" xmlns="http://www.w3.org/2000/svg">
<path d="M11.255 4.2702C10.54 3.2577 9.55001 2.80145 8.50001 2.8127C7.50376 2.8227 6.53376 3.24895 5.72376 3.81645C4.89759 4.3981 4.19312 5.13569 3.65001 5.9877C3.13751 6.79895 2.76751 7.7577 2.81751 8.69395C3.05876 13.1977 5.59251 18.0102 9.15126 21.5715C12.7075 25.129 17.4563 27.6015 22.2513 27.129C23.1913 27.0365 24.08 26.5577 24.8063 25.9477C25.5574 25.3114 26.1711 24.5289 26.61 23.6477C27.035 22.7827 27.2888 21.7852 27.1488 20.814C27.0038 19.8015 26.4375 18.8965 25.3963 18.2965C25.1805 18.1713 24.9672 18.0421 24.7563 17.909C24.5688 17.7927 24.3688 17.6665 24.1263 17.5215C23.6309 17.2161 23.1083 16.9574 22.565 16.749C22.0063 16.5452 21.3675 16.4115 20.7025 16.5027C20.0138 16.5977 19.3738 16.9227 18.82 17.5052C18.3938 17.9552 17.7663 18.0952 16.8838 17.8402C15.9863 17.5802 14.9763 16.9352 14.0988 16.0627C13.2213 15.1927 12.5575 14.1752 12.2738 13.2565C11.9938 12.3465 12.1175 11.6777 12.555 11.2165C13.1463 10.594 13.4613 9.90145 13.5275 9.16895C13.5925 8.45645 13.415 7.78645 13.1613 7.20145C12.7813 6.3277 12.1363 5.45895 11.6313 4.78145C11.5043 4.61207 11.3793 4.44122 11.2563 4.26895" fill="#9747FF"/>
</svg>
