<svg width="49" height="49" viewBox="0 0 49 49" fill="none" xmlns="http://www.w3.org/2000/svg">
<rect x="48.5093" y="19.3335" width="35" height="35" rx="17.5" transform="rotate(123.531 48.5093 19.3335)" fill="#9747FF"/>
<path d="M21.1858 15.223L33.7677 23.5606C34.1122 23.7889 34.3205 24.1019 34.3928 24.4997C34.4651 24.8975 34.3935 25.2582 34.1778 25.5819C34.1107 25.6832 34.0251 25.7798 33.921 25.8718C33.8169 25.9637 33.7007 26.0396 33.5726 26.0992L20.7162 31.8379C20.4738 31.9397 20.2311 31.976 19.988 31.9467C19.745 31.9174 19.5225 31.8353 19.3204 31.7002C19.1183 31.5651 18.9559 31.3922 18.8332 31.1814C18.7104 30.9706 18.6492 30.733 18.6496 30.4684L18.924 16.3921C18.9304 16.2505 18.9549 16.114 18.9977 15.9826C19.0405 15.8511 19.0961 15.7346 19.1646 15.6331C19.3794 15.3089 19.6841 15.1026 20.0786 15.0141C20.4731 14.9256 20.8422 14.9953 21.1858 15.223Z" fill="white"/>
</svg>
